<svg xmlns="http://www.w3.org/2000/svg" width="41.755" height="25" viewBox="0 0 41.755 25">
  <g id="Group_538" data-name="Group 538" transform="translate(-417.645 -364)">
    <path id="Path_148" data-name="Path 148" d="M459.177,376.024l-12.4-11.838a.675.675,0,0,0-.445-.186.654.654,0,0,0-.446.186l-1.5,1.434a.632.632,0,0,0-.034.894c.011.012.022.023.034.034L454.8,376.5l-10.41,9.947a.633.633,0,0,0-.034.894l.034.034,1.5,1.434a.652.652,0,0,0,.445.186.639.639,0,0,0,.446-.186l12.414-11.849a.644.644,0,0,0,.208-.464A.727.727,0,0,0,459.177,376.024Z" fill="#1565c0"/>
    <path id="Path_149" data-name="Path 149" d="M422.238,376.5l10.415-9.948a.633.633,0,0,0,.034-.894l-.034-.034-1.5-1.434a.675.675,0,0,0-.445-.186.654.654,0,0,0-.446.186l-12.415,11.846a.632.632,0,0,0-.034.893l.034.034,12.415,11.849a.675.675,0,0,0,.446.186.631.631,0,0,0,.445-.186l1.5-1.434a.633.633,0,0,0,.034-.894l-.034-.034Z" fill="#1565c0"/>
    <path id="Path_150" data-name="Path 150" d="M440.9,376.5a2.392,2.392,0,1,1-2.392-2.392A2.392,2.392,0,0,1,440.9,376.5Z" fill="#1565c0"/>
    <path id="Path_151" data-name="Path 151" d="M433.947,376.5a2.392,2.392,0,1,1-2.392-2.392,2.392,2.392,0,0,1,2.392,2.392Z" fill="#1565c0"/>
    <path id="Path_152" data-name="Path 152" d="M447.861,376.5a2.391,2.391,0,1,1-2.391-2.392,2.392,2.392,0,0,1,2.391,2.392Z" fill="#1565c0"/>
  </g>
</svg>
