<svg xmlns="http://www.w3.org/2000/svg" width="41.351" height="35.438" viewBox="0 0 41.351 35.438"><g transform="translate(-2.317 -4.43)"><path d="M6.813,19.183v8.555a.747.747,0,0,0,.369.646l12.182,7a.74.74,0,0,0,1.107-.646V26.086a.747.747,0,0,0-.369-.646L7.921,18.528A.751.751,0,0,0,6.813,19.183Z" transform="translate(1.406 4.379)" fill="#1565c0"/><path d="M20.012,35.411l12.192-7a.736.736,0,0,0,.369-.646V19.112a.741.741,0,0,0-1.107-.646l-12.182,7a.736.736,0,0,0-.369.646v8.657A.73.73,0,0,0,20.012,35.411Z" transform="translate(5.188 4.357)" fill="#1565c0"/><path d="M22.256,4.623,2.691,16.049a.737.737,0,0,0,0,1.283L22.256,28.2a1.486,1.486,0,0,0,1.467,0l17.36-9.94c.489-.286.646.074.646.646V33.068c0,.628.36.923,1.015.923h0a.91.91,0,0,0,.923-.923V17.212a.747.747,0,0,0-.369-.646L23.724,4.623A1.486,1.486,0,0,0,22.256,4.623Z" transform="translate(0 0)" fill="#1565c0"/></g></svg>