<svg xmlns="http://www.w3.org/2000/svg" xmlns:xlink="http://www.w3.org/1999/xlink" width="37" height="37" viewBox="0 0 37 37"><defs><clipPath id="a"><rect width="37" height="37" transform="translate(-4970 1804)" fill="#fff"/></clipPath></defs><g transform="translate(4970 -1804)" clip-path="url(#a)"><g transform="translate(-4969 1806)"><path d="M-.18,4.027A3.569,3.569,0,0,1,.98,1.293,4.255,4.255,0,0,1,4,.216a4.129,4.129,0,0,1,2.95,1.061,3.738,3.738,0,0,1,1.16,2.85A3.49,3.49,0,0,1,6.978,6.778,4.263,4.263,0,0,1,3.93,7.872H3.9A4.056,4.056,0,0,1,.947,6.778,3.673,3.673,0,0,1-.18,4.027Zm.431,29V10.887H7.608V33.026H.251Zm11.434,0h7.357V20.664a4.771,4.771,0,0,1,.265-1.79,4.807,4.807,0,0,1,1.408-1.906,3.6,3.6,0,0,1,2.37-.779q3.712,0,3.712,5V33.026h7.357V20.333q0-4.9-2.32-7.44A7.914,7.914,0,0,0,25.7,10.357a7.521,7.521,0,0,0-6.661,3.679V14.1h-.033l.033-.066V10.887H11.685q.066,1.061.066,6.6t-.066,15.543Z" transform="translate(0.18 -0.216)" fill="#fff"/></g></g></svg>