<svg xmlns="http://www.w3.org/2000/svg" xmlns:xlink="http://www.w3.org/1999/xlink" width="37" height="37" viewBox="0 0 37 37"><defs><clipPath id="a"><rect width="37" height="37" transform="translate(-7166 1851)" fill="#fff"/></clipPath></defs><g transform="translate(7166 -1851)" clip-path="url(#a)"><g transform="translate(-7168.317 1849.927)"><path d="M6.813,19.091v7.5a.655.655,0,0,0,.324.567L17.821,33.3a.649.649,0,0,0,.971-.567V25.146a.655.655,0,0,0-.324-.567L7.785,18.517a.659.659,0,0,0-.972.574Z" transform="translate(0.68 2.119)" fill="#1565c0"/><path d="M19.877,33.316l10.693-6.14a.646.646,0,0,0,.324-.567V19.021a.65.65,0,0,0-.971-.567l-10.684,6.14a.646.646,0,0,0-.324.567v7.593a.64.64,0,0,0,.962.563Z" transform="translate(2.51 2.108)" fill="#1565c0"/><path d="M19.8,4.6,2.645,14.621a.646.646,0,0,0,0,1.125L19.8,25.278a1.3,1.3,0,0,0,1.287,0L36.318,16.56c.429-.251.567.065.567.567V29.547c0,.551.316.81.89.81h0a.8.8,0,0,0,.81-.81V15.641a.655.655,0,0,0-.324-.567L21.092,4.6A1.3,1.3,0,0,0,19.8,4.6Z" transform="translate(0)" fill="#1565c0"/></g></g></svg>