<svg xmlns="http://www.w3.org/2000/svg" width="20.015" height="20.015" viewBox="0 0 20.015 20.015"><g transform="translate(-3.375 -3.375)"><path d="M19.842,18.753l-2.536-2.536,2.536-2.536a.769.769,0,0,0-1.087-1.087L16.219,15.13l-2.536-2.536A.769.769,0,0,0,12.6,13.682l2.536,2.536L12.6,18.753a.743.743,0,0,0,0,1.087.764.764,0,0,0,1.087,0L16.219,17.3l2.536,2.536a.772.772,0,0,0,1.087,0A.764.764,0,0,0,19.842,18.753Z" transform="translate(-2.837 -2.835)" fill="#263238"/><path d="M13.382,4.722A8.657,8.657,0,1,1,7.258,7.258a8.6,8.6,0,0,1,6.125-2.536m0-1.347A10.007,10.007,0,1,0,23.39,13.382,10.006,10.006,0,0,0,13.382,3.375Z" fill="#263238"/></g></svg>