<svg xmlns="http://www.w3.org/2000/svg" width="28.602" height="34.268" viewBox="0 0 28.602 34.268"><path d="M2.681,23.684q0-1.788.2-5.369a4.332,4.332,0,0,1,1.259-2.867,4.3,4.3,0,0,1,2.883-1.21q3.314-.166,9.975-.166t9.977.166a4.222,4.222,0,0,1,4.143,4.076q.163,2.983.166,5.369t-.166,5.37a4.22,4.22,0,0,1-4.143,4.076Q23.659,33.3,17,33.3T7.022,33.13a4.3,4.3,0,0,1-2.882-1.21,4.329,4.329,0,0,1-1.259-2.868Q2.68,25.475,2.681,23.684ZM4.9,19.012H6.923V29.817H8.878V19.012H10.9V17.189h-6ZM7.056-.972H9.044L10.3,4.065h.133L11.629-.972h1.988l-1.524,4.9q-.763,2.419-.762,2.486v5.236H9.375v-5a5.511,5.511,0,0,0-.182-.845c-.077-.254-.177-.547-.3-.878s-.215-.608-.282-.829ZM10.9,28.358q0,1.591,1.193,1.591a2.678,2.678,0,0,0,2.022-1.16v1.027h1.724V20.5H14.115V27.6q-.7.7-1.027.7c-.309,0-.464-.21-.464-.63V20.5H10.9v7.853ZM13.518,9.3V4.463a2.149,2.149,0,0,1,.729-1.74A2.783,2.783,0,0,1,16.1,2.11a2.428,2.428,0,0,1,1.772.663,2.34,2.34,0,0,1,.679,1.756V9.335a2.565,2.565,0,0,1-.663,1.872,2.476,2.476,0,0,1-1.856.679,2.421,2.421,0,0,1-1.839-.713A2.606,2.606,0,0,1,13.518,9.3Zm1.79.232q0,.761.729.762.761,0,.762-.829V4.4a.627.627,0,0,0-.233-.5.789.789,0,0,0-.53-.2.772.772,0,0,0-.514.182.6.6,0,0,0-.215.481v5.17Zm2.22,20.282h1.756v-.7a2.04,2.04,0,0,0,1.658.83q1.557,0,1.558-2.055v-5.17q0-2.352-1.691-2.352a1.956,1.956,0,0,0-1.524.894V17.189H17.528V29.816Zm1.756-1.756V22.227a1.052,1.052,0,0,1,.729-.366q.729,0,.729.928v4.9q0,.8-.63.8A1.065,1.065,0,0,1,19.285,28.06ZM20.047,10.2V2.342H21.77V9.467q0,.629.464.63.43,0,1.027-.7V2.342h1.723v9.313H23.262V10.627a2.68,2.68,0,0,1-2.023,1.16Q20.047,11.787,20.047,10.2Zm3.778,17a3.281,3.281,0,0,0,.63,2.071,2.243,2.243,0,0,0,1.889.812q2.585,0,2.584-2.883v-.7H27.14c0,.045,0,.194.017.447a2.636,2.636,0,0,1-.017.547c-.022.11-.051.26-.083.448a.583.583,0,0,1-.216.4.8.8,0,0,1-.463.116q-.763,0-.762-1.326V25.376h3.313V22.989A2.992,2.992,0,0,0,28.316,21a2.308,2.308,0,0,0-1.872-.728,2.483,2.483,0,0,0-1.906.761,2.753,2.753,0,0,0-.713,1.955Zm1.79-3.281v-.994q0-1.027.762-1.027t.762,1.027v.994Z" transform="translate(-2.681 0.972)" fill="#263238"/></svg>