<svg xmlns="http://www.w3.org/2000/svg" width="20.151" height="20.151" viewBox="0 0 20.151 20.151"><g transform="translate(-3.375 -3.375)"><path d="M20.055,14.9H16.446c-.041.009-1.556.041-1.55,0H11.287a.742.742,0,0,0-.775.775.75.75,0,0,0,.775.775H14.9s1.49.013,1.55,0h3.609a.775.775,0,1,0,0-1.55Z" transform="translate(-2.22 -2.22)" fill="#1565c0"/><path d="M13.451,4.731A8.716,8.716,0,1,1,7.284,7.284a8.662,8.662,0,0,1,6.167-2.553m0-1.356A10.076,10.076,0,1,0,23.526,13.451,10.074,10.074,0,0,0,13.451,3.375Z" fill="#1565c0"/></g></svg>