<svg xmlns="http://www.w3.org/2000/svg" xmlns:xlink="http://www.w3.org/1999/xlink" viewBox="0 0 203.4 62.18"><defs><style>.cls-1{fill:none;}.cls-2{clip-path:url(#clip-path);}.cls-3{fill:url(#linear-gradient);}.cls-4{clip-path:url(#clip-path-2);}.cls-5{fill:url(#linear-gradient-2);}.cls-6{clip-path:url(#clip-path-3);}.cls-7{fill:url(#linear-gradient-3);}.cls-8{clip-path:url(#clip-path-4);}.cls-9{fill:url(#linear-gradient-4);}.cls-10{clip-path:url(#clip-path-5);}.cls-11{fill:url(#linear-gradient-5);}.cls-12{clip-path:url(#clip-path-6);}.cls-13{clip-path:url(#clip-path-7);}.cls-14{clip-path:url(#clip-path-8);}.cls-15{clip-path:url(#clip-path-9);}.cls-16{fill:url(#linear-gradient-9);}.cls-17{clip-path:url(#clip-path-10);}.cls-18{fill:#616161;}</style><clipPath id="clip-path" transform="translate(-25.73 -15.38)"><path class="cls-1" d="M208.79,32.21l-4.91,17a10.73,10.73,0,0,1-2,4.16c-1.27,1.55-3.27,2.32-6,2.32s-4.33-.77-4.71-2.32a7.83,7.83,0,0,1,.4-4.16l4.91-17h-6.9l-4.91,17c-.85,2.94-1,5.22-.38,6.85q1.72,4.5,10.17,4.5T207.19,56a16.47,16.47,0,0,0,3.59-6.85l4.91-17Z"/></clipPath><linearGradient id="linear-gradient" x1="-129.78" y1="142.7" x2="-129.3" y2="142.7" gradientTransform="matrix(-72.33, 0, 0, 72.33, -9165.55, -10274.54)" gradientUnits="userSpaceOnUse"><stop offset="0" stop-color="#929497"/><stop offset="1" stop-color="#59595b"/></linearGradient><clipPath id="clip-path-2" transform="translate(-25.73 -15.38)"><polygon class="cls-1" points="42.48 15.38 37.63 32.21 48.42 32.21 53.3 15.38 42.48 15.38"/></clipPath><linearGradient id="linear-gradient-2" x1="-130.76" y1="143.47" x2="-130.28" y2="143.47" gradientTransform="matrix(318.39, 0, -12.32, 318.39, 43405.83, -45671.19)" gradientUnits="userSpaceOnUse"><stop offset="0" stop-color="#1e4384"/><stop offset="0.31" stop-color="#1e4384"/><stop offset="0.43" stop-color="#235593"/><stop offset="0.66" stop-color="#2b72aa"/><stop offset="0.86" stop-color="#2f84b9"/><stop offset="1" stop-color="#318abe"/></linearGradient><clipPath id="clip-path-3" transform="translate(-25.73 -15.38)"><polygon class="cls-1" points="73.72 15.38 68.81 32.32 52.12 32.32 49.95 39.97 66.6 39.97 60.9 59.8 71.75 59.8 84.57 15.38 73.72 15.38"/></clipPath><linearGradient id="linear-gradient-3" x1="-130.76" y1="143.42" x2="-130.28" y2="143.42" gradientTransform="matrix(318.39, 0, -12.32, 318.39, 43404.72, -45642.41)" xlink:href="#linear-gradient-2"/><clipPath id="clip-path-4" transform="translate(-25.73 -15.38)"><polygon class="cls-1" points="35.31 40.23 29.67 59.8 40.48 59.8 46.1 40.23 35.31 40.23"/></clipPath><linearGradient id="linear-gradient-4" x1="-130.76" y1="143.38" x2="-130.28" y2="143.38" gradientTransform="matrix(318.39, 0, -12.32, 318.39, 43403.72, -45616.49)" xlink:href="#linear-gradient-2"/><clipPath id="clip-path-5" transform="translate(-25.73 -15.38)"><polygon class="cls-1" points="146.09 40.25 140.45 59.8 157.88 59.8 158.89 56.28 146.16 56.28 147.6 51.26 158.78 51.26 159.77 47.86 148.59 47.86 149.78 43.71 161.96 43.71 162.96 40.25 146.09 40.25"/></clipPath><linearGradient id="linear-gradient-5" x1="-130.76" y1="143.38" x2="-130.28" y2="143.38" gradientTransform="matrix(318.39, 0, -12.32, 318.39, 43403.72, -45616.48)" xlink:href="#linear-gradient-2"/><clipPath id="clip-path-6" transform="translate(-25.73 -15.38)"><path class="cls-1" d="M169.17,43.65h5.59A5.38,5.38,0,0,1,177,44c.8.4,1,1.2.7,2.39a3.15,3.15,0,0,1-2.08,2.2,8,8,0,0,1-2.53.32h-5.45Zm-3.71-3.4L159.82,59.8h4.7l2.2-7.67h5c1.42,0,2.32.21,2.72.63s.42,1.24.08,2.49L174,57.07a7.2,7.2,0,0,0-.28,1.68,7.74,7.74,0,0,0,0,1H179l.12-.49a1.17,1.17,0,0,1-.55-1.11,10,10,0,0,1,.41-1.82l.37-1.31a5.19,5.19,0,0,0,.22-3.06,2.82,2.82,0,0,0-1.8-1.55,6.68,6.68,0,0,0,3.28-1.9,7.1,7.1,0,0,0,1.62-2.74,4.38,4.38,0,0,0,.15-2.06,4.17,4.17,0,0,0-.7-1.65,4.07,4.07,0,0,0-1.83-1.36,10.8,10.8,0,0,0-3.56-.5Z"/></clipPath><clipPath id="clip-path-7" transform="translate(-25.73 -15.38)"><path class="cls-1" d="M89.78,44.72l.65,7.69H84.59ZM88.4,40.25,74.55,59.8h5l2.74-4H90.8l.33,4h5.21L93.83,40.25Z"/></clipPath><clipPath id="clip-path-8" transform="translate(-25.73 -15.38)"><polygon class="cls-1" points="137.83 40.25 126.63 48.3 128.96 40.25 124.22 40.25 118.58 59.8 123.31 59.8 125.19 53.26 128.06 51.26 132.71 59.8 138.89 59.8 132.29 48.3 144.04 40.25 137.83 40.25"/></clipPath><clipPath id="clip-path-9" transform="translate(-25.73 -15.38)"><path class="cls-1" d="M104,42.29a13.91,13.91,0,0,0-5.5,7.89q-1.38,4.74.68,7.46c1.37,1.8,3.72,2.7,7,2.7a13,13,0,0,0,7.16-2,12.59,12.59,0,0,0,4.69-5.2h-4.76a8.47,8.47,0,0,1-1.87,2.27,6.56,6.56,0,0,1-4.27,1.41,4.05,4.05,0,0,1-3.59-1.64c-.74-1.1-.8-2.74-.16-4.93a10.35,10.35,0,0,1,3-5.09A6.83,6.83,0,0,1,111,43.37c1.71,0,2.89.42,3.51,1.27a3.85,3.85,0,0,1,.59,2.12h4.8a5.09,5.09,0,0,0-.53-3.65c-1.16-2.16-3.68-3.23-7.55-3.23A13.54,13.54,0,0,0,104,42.29"/></clipPath><linearGradient id="linear-gradient-9" x1="-130.76" y1="143.38" x2="-130.28" y2="143.38" gradientTransform="matrix(318.39, 0, -12.32, 318.39, 43403.71, -45616.3)" xlink:href="#linear-gradient-2"/><clipPath id="clip-path-10" transform="translate(-25.73 -15.38)"><rect class="cls-1" width="241.42" height="92.94"/></clipPath></defs><g id="Layer_2" data-name="Layer 2"><g id="Layer_1-2" data-name="Layer 1"><g class="cls-2"><rect class="cls-3" x="178.43" y="25.52" width="42.53" height="41.69" transform="translate(-15.14 110.16) rotate(-35.79)"/></g><g class="cls-4"><polygon class="cls-5" points="11.25 16.83 27.57 16.83 28.22 0 11.9 0 11.25 16.83"/></g><g class="cls-6"><polygon class="cls-7" points="22.5 44.42 58.84 44.42 60.55 0 24.22 0 22.5 44.42"/></g><g class="cls-8"><polygon class="cls-9" points="3.18 44.42 20.37 44.42 21.13 24.86 3.94 24.86 3.18 44.42"/></g><g class="cls-10"><polygon class="cls-11" points="113.96 44.42 137.23 44.42 137.99 24.87 114.72 24.87 113.96 44.42"/></g><g class="cls-12"><polygon class="cls-11" points="133.33 44.42 157.23 44.42 157.99 24.87 134.09 24.87 133.33 44.42"/></g><g class="cls-13"><polygon class="cls-11" points="48.06 44.42 70.61 44.42 71.36 24.87 48.82 24.87 48.06 44.42"/></g><g class="cls-14"><polygon class="cls-11" points="92.09 44.42 118.31 44.42 119.07 24.87 92.85 24.87 92.09 44.42"/></g><g class="cls-15"><polygon class="cls-16" points="71.04 44.97 94.47 44.97 95.26 24.5 71.83 24.5 71.04 44.97"/></g><g class="cls-17"><path class="cls-18" d="M75.66,73.46a3.84,3.84,0,0,1-1.9-1.07,1.62,1.62,0,0,1-.24-1.56,3.1,3.1,0,0,1,1.34-1.74,4.24,4.24,0,0,1,2.39-.69,3.16,3.16,0,0,1,1.54.35,1.8,1.8,0,0,1,.83,1,2.28,2.28,0,0,1,0,1.37H78.44a1.32,1.32,0,0,0-.15-1.28A1.64,1.64,0,0,0,77,69.36a2.69,2.69,0,0,0-1.46.38,1.82,1.82,0,0,0-.79,1.07.89.89,0,0,0,.19.92,3.34,3.34,0,0,0,1.38.69,5.48,5.48,0,0,1,1.54.69,1.72,1.72,0,0,1,.68.88,2,2,0,0,1,0,1.18,3,3,0,0,1-1.34,1.74,4.52,4.52,0,0,1-2.45.65,3.6,3.6,0,0,1-1.61-.35,1.94,1.94,0,0,1-.95-1,2.05,2.05,0,0,1,0-1.39h1.18a1.21,1.21,0,0,0,.23,1.28A2,2,0,0,0,75,76.6a2.9,2.9,0,0,0,1.54-.38,1.82,1.82,0,0,0,.79-1,1,1,0,0,0-.17-1,3.82,3.82,0,0,0-1.46-.71" transform="translate(-25.73 -15.38)"/><path class="cls-18" d="M89.7,73.27a7.09,7.09,0,0,1-1.09,2.28A5,5,0,0,1,86.93,77a4.15,4.15,0,0,1-2,.52A2.69,2.69,0,0,1,83.18,77a2.34,2.34,0,0,1-.84-1.47,5,5,0,0,1,.17-2.22l.19-.65a7,7,0,0,1,1.1-2.27,5.13,5.13,0,0,1,1.69-1.51,4.19,4.19,0,0,1,2-.52,2.71,2.71,0,0,1,1.74.52,2.25,2.25,0,0,1,.83,1.5,5.19,5.19,0,0,1-.21,2.28Zm-1-.58a3.61,3.61,0,0,0,.06-2.43,1.52,1.52,0,0,0-1.54-.85,2.77,2.77,0,0,0-2,.85,5.26,5.26,0,0,0-1.34,2.35l-.19.66a3.6,3.6,0,0,0,0,2.41,1.5,1.5,0,0,0,1.52.88,2.84,2.84,0,0,0,2-.83,5.42,5.42,0,0,0,1.32-2.38Z" transform="translate(-25.73 -15.38)"/><polygon class="cls-18" points="68.32 61.1 72.54 61.1 72.27 62.06 66.86 62.06 69.42 53.14 70.6 53.14 68.32 61.1"/><path class="cls-18" d="M110.16,68.52l-1.74,6.06A4,4,0,0,1,107,76.65a4.32,4.32,0,0,1-2.39.9h-.32a2.58,2.58,0,0,1-2.1-.79,2.31,2.31,0,0,1-.26-2.18l1.74-6.07h1.16l-1.73,6a1.74,1.74,0,0,0,.1,1.5,1.57,1.57,0,0,0,1.37.54,2.64,2.64,0,0,0,1.68-.54,2.84,2.84,0,0,0,1-1.5l1.73-6Z" transform="translate(-25.73 -15.38)"/><polygon class="cls-18" points="94.49 54.1 91.63 54.1 89.35 62.06 88.18 62.06 90.46 54.1 87.6 54.1 87.87 53.14 94.77 53.14 94.49 54.1"/><polygon class="cls-18" points="97.12 62.06 95.94 62.06 98.5 53.14 99.67 53.14 97.12 62.06"/><path class="cls-18" d="M135.37,73.27a6.91,6.91,0,0,1-1.1,2.28A5.1,5.1,0,0,1,132.6,77a4.18,4.18,0,0,1-2,.52,2.66,2.66,0,0,1-1.71-.52,2.31,2.31,0,0,1-.85-1.47,5.16,5.16,0,0,1,.18-2.22l.18-.65a7.15,7.15,0,0,1,1.1-2.27,5.16,5.16,0,0,1,1.7-1.51,4.16,4.16,0,0,1,2-.52,2.75,2.75,0,0,1,1.74.52,2.29,2.29,0,0,1,.83,1.5,5.37,5.37,0,0,1-.22,2.28Zm-1-.58a3.61,3.61,0,0,0,.06-2.43,1.53,1.53,0,0,0-1.54-.85,2.81,2.81,0,0,0-2,.85,5.25,5.25,0,0,0-1.33,2.35l-.19.66a3.62,3.62,0,0,0-.05,2.41,1.52,1.52,0,0,0,1.53.88,2.8,2.8,0,0,0,2-.83,5.33,5.33,0,0,0,1.33-2.38Z" transform="translate(-25.73 -15.38)"/><polygon class="cls-18" points="119.38 62.06 118.2 62.06 115.68 55.19 113.71 62.06 112.53 62.06 115.08 53.14 116.27 53.14 118.79 60.04 120.77 53.14 121.94 53.14 119.38 62.06"/><path class="cls-18" d="M153.29,73.46a3.84,3.84,0,0,1-1.9-1.07,1.62,1.62,0,0,1-.24-1.56,3.1,3.1,0,0,1,1.34-1.74,4.24,4.24,0,0,1,2.39-.69,3.09,3.09,0,0,1,1.53.35,1.82,1.82,0,0,1,.84,1,2.28,2.28,0,0,1,0,1.37h-1.18a1.34,1.34,0,0,0-.15-1.28,1.64,1.64,0,0,0-1.32-.46,2.69,2.69,0,0,0-1.46.38,1.88,1.88,0,0,0-.8,1.07.92.92,0,0,0,.2.92,3.34,3.34,0,0,0,1.38.69,5.48,5.48,0,0,1,1.54.69,1.72,1.72,0,0,1,.68.88,2.09,2.09,0,0,1,0,1.18,3,3,0,0,1-1.34,1.74,4.52,4.52,0,0,1-2.45.65,3.57,3.57,0,0,1-1.61-.35,1.94,1.94,0,0,1-.95-1,2.05,2.05,0,0,1,0-1.39h1.18a1.21,1.21,0,0,0,.23,1.28,2,2,0,0,0,1.46.47,2.84,2.84,0,0,0,1.53-.38,1.79,1.79,0,0,0,.8-1,1,1,0,0,0-.17-1,3.82,3.82,0,0,0-1.46-.71" transform="translate(-25.73 -15.38)"/><polygon class="cls-18" points="43.87 54.2 0.7 54.2 1 53.14 44.17 53.14 43.87 54.2"/><polygon class="cls-18" points="43.17 56.88 0 56.88 0.3 55.83 43.47 55.83 43.17 56.88"/><polygon class="cls-18" points="178.63 54.2 135.46 54.2 135.76 53.14 178.93 53.14 178.63 54.2"/><polygon class="cls-18" points="177.93 56.88 134.76 56.88 135.06 55.83 178.23 55.83 177.93 56.88"/></g></g></g></svg>