<svg xmlns="http://www.w3.org/2000/svg" xmlns:xlink="http://www.w3.org/1999/xlink" width="40" height="40" viewBox="0 0 40 40"><defs><clipPath id="a"><rect width="40" height="40" transform="translate(685 1663)" fill="#fff"/></clipPath></defs><g transform="translate(-685 -1663)" clip-path="url(#a)"><g transform="translate(685.499 1662.75)"><path d="M18.934,22.671a10.205,10.205,0,0,0,10.289-10.3A10.36,10.36,0,0,0,19.106,2.25a10.205,10.205,0,0,0-10.289,10.3A10.36,10.36,0,0,0,18.934,22.671ZM18.645,6.726a5.746,5.746,0,1,1-5.351,5.359A5.747,5.747,0,0,1,18.645,6.726Z" transform="translate(0.479 0)" fill="#1565c0"/><path d="M19.5,22.062a11.59,11.59,0,0,1-8.476-3.672.324.324,0,0,0-.516.055L4.586,28.812a.643.643,0,0,0,.562.961h6.258a.646.646,0,0,1,.555.312l3.047,5.07a.647.647,0,0,0,1.141-.062l3.359-7.39,2.445-5.383a.319.319,0,0,0-.352-.445A12.439,12.439,0,0,1,19.5,22.062Z" transform="translate(0 1.781)" fill="#1565c0"/><path d="M26.408,18.383a11.608,11.608,0,0,1-4.1,2.82.3.3,0,0,0-.172.164L18.643,29a.316.316,0,0,0,0,.266l2.648,5.82a.647.647,0,0,0,1.141.063l3.047-5.07a.646.646,0,0,1,.555-.312h6.258a.645.645,0,0,0,.562-.961L26.932,18.43A.341.341,0,0,0,26.408,18.383Z" transform="translate(1.568 1.781)" fill="#1565c0"/></g></g></svg>