<svg xmlns="http://www.w3.org/2000/svg" width="18.043" height="35" viewBox="0 0 18.043 35">
  <path id="Icon_ionic-ios-attach" data-name="Icon ionic-ios-attach" d="M26.7,12.334a1.22,1.22,0,0,0-1.218,1.218V28.736a6.3,6.3,0,0,1-1.718,4.3,6.182,6.182,0,0,1-4.335,1.851H18.37a6.071,6.071,0,0,1-4.28-1.921,6.271,6.271,0,0,1-1.867-4.312V9.069a4.245,4.245,0,0,1,1.351-3.085,4.647,4.647,0,0,1,3.2-1.273,4.347,4.347,0,0,1,4.39,4.358V27.362A2.469,2.469,0,0,1,18.9,29.877a2.4,2.4,0,0,1-2.2-2.515V16.926a1.218,1.218,0,0,0-2.437,0V27.362a4.686,4.686,0,0,0,7.975,3.515A4.934,4.934,0,0,0,23.6,27.362V9.069a6.827,6.827,0,0,0-6.85-6.819,6.854,6.854,0,0,0-4.858,1.992A6.739,6.739,0,0,0,9.872,9.077V28.666a8.729,8.729,0,0,0,2.546,6.092,8.443,8.443,0,0,0,5.944,2.492h1.062a8.532,8.532,0,0,0,5.928-2.507,8.774,8.774,0,0,0,1.867-2.7,8.178,8.178,0,0,0,.7-3.288v-15.2A1.208,1.208,0,0,0,26.7,12.334Z" transform="translate(-9.872 -2.25)" fill="#fff"/>
</svg>
