<svg xmlns="http://www.w3.org/2000/svg" xmlns:xlink="http://www.w3.org/1999/xlink" width="244.028" height="93.94" viewBox="0 0 244.028 93.94"><defs><clipPath id="a"><path d="M408.751,67.175l-4.962,17.154a10.817,10.817,0,0,1-2.012,4.205q-1.919,2.347-6.081,2.347-4.188,0-4.766-2.347a8.008,8.008,0,0,1,.406-4.205L396.3,67.175h-6.973l-4.963,17.154q-1.288,4.456-.381,6.928,1.744,4.553,10.273,4.552t12.876-4.552a16.61,16.61,0,0,0,3.632-6.928l4.964-17.154Z" transform="translate(-383.609 -67.175)" fill="none"/></clipPath><linearGradient id="b" x1="-4.196" y1="1.617" x2="-4.184" y2="1.617" gradientUnits="objectBoundingBox"><stop offset="0" stop-color="#929497"/><stop offset="1" stop-color="#59595b"/></linearGradient><clipPath id="c"><path d="M83.395,32.076,78.489,49.085H89.4l4.929-17.009Z" transform="translate(-78.489 -32.076)" fill="none"/></clipPath><linearGradient id="d" x1="-2.179" y1="4.609" x2="-2.151" y2="4.609" gradientUnits="objectBoundingBox"><stop offset="0" stop-color="#1e4384"/><stop offset="0.312" stop-color="#1e4384"/><stop offset="0.432" stop-color="#225592"/><stop offset="0.659" stop-color="#2a72aa"/><stop offset="0.856" stop-color="#2f83b8"/><stop offset="1" stop-color="#318abe"/></linearGradient><clipPath id="e"><path d="M128.207,32.076,123.245,49.2H106.377l-2.2,7.735H121.01L115.252,76.98h10.966l12.955-44.9Z" transform="translate(-104.179 -32.076)" fill="none"/></clipPath><linearGradient id="f" x1="-1.267" y1="1.746" x2="-1.255" y2="1.746" xlink:href="#d"/><clipPath id="g"><path d="M67.59,83.922,61.885,103.7H72.813L78.5,83.922Z" transform="translate(-61.885 -83.922)" fill="none"/></clipPath><linearGradient id="h" x1="-1.611" y1="2.693" x2="-1.584" y2="2.693" xlink:href="#d"/><clipPath id="i"><path d="M298.653,83.953l-5.7,19.763h17.62l1.021-3.555H298.721l1.459-5.081h11.3l1-3.432h-11.3l1.2-4.2h12.3l1.018-3.494Z" transform="translate(-292.952 -83.953)" fill="none"/></clipPath><linearGradient id="j" x1="-5.815" y1="2.695" x2="-5.795" y2="2.695" xlink:href="#d"/><clipPath id="k"><path d="M342.8,87.385h5.65a5.4,5.4,0,0,1,2.276.35c.811.4,1.051,1.21.71,2.41a3.176,3.176,0,0,1-2.107,2.225,8.022,8.022,0,0,1-2.553.322H341.27Zm-3.744-3.432-5.705,19.763H338.1l2.226-7.752h5.015c1.43,0,2.347.211,2.744.629s.427,1.262.086,2.522l-.5,1.838a7.93,7.93,0,0,0-.284,1.7,10.571,10.571,0,0,0,.02,1.061h5.348l.128-.5a1.171,1.171,0,0,1-.556-1.123,9.843,9.843,0,0,1,.407-1.842l.38-1.323a5.284,5.284,0,0,0,.22-3.094,2.848,2.848,0,0,0-1.823-1.559,6.717,6.717,0,0,0,3.314-1.925,7.235,7.235,0,0,0,1.647-2.773,4.5,4.5,0,0,0,.151-2.075,4.235,4.235,0,0,0-.714-1.665,4.048,4.048,0,0,0-1.842-1.377,10.788,10.788,0,0,0-3.606-.508Z" transform="translate(-333.352 -83.953)" fill="none"/></clipPath><linearGradient id="l" x1="-6.452" y1="2.695" x2="-6.432" y2="2.695" xlink:href="#d"/><clipPath id="m"><path d="M170.888,88.472l.661,7.778h-5.9ZM169.5,83.953l-14,19.763h5.081l2.775-4.066h8.565l.332,4.066h5.27l-2.533-19.763Z" transform="translate(-155.501 -83.953)" fill="none"/></clipPath><linearGradient id="n" x1="-3.167" y1="2.695" x2="-3.147" y2="2.695" xlink:href="#d"/><clipPath id="o"><path d="M266.8,83.953l-11.326,8.135,2.351-8.135H253.04l-5.7,19.763h4.781l1.9-6.612,2.9-2.024,4.7,8.636h6.245L261.2,92.088l11.877-8.135Z" transform="translate(-247.339 -83.953)" fill="none"/></clipPath><linearGradient id="p" x1="-4.368" y1="2.695" x2="-4.35" y2="2.695" xlink:href="#d"/><clipPath id="q"><path d="M210.375,85.614a14.069,14.069,0,0,0-5.56,7.977q-1.386,4.79.687,7.538t7.1,2.735a13.139,13.139,0,0,0,7.232-2.024,12.722,12.722,0,0,0,4.74-5.257h-4.813a8.569,8.569,0,0,1-1.885,2.292,6.644,6.644,0,0,1-4.316,1.424,4.09,4.09,0,0,1-3.627-1.655q-1.135-1.662-.169-4.985a10.487,10.487,0,0,1,3.007-5.139,6.9,6.9,0,0,1,4.708-1.816c1.733,0,2.919.427,3.546,1.287a3.8,3.8,0,0,1,.6,2.144h4.859a5.176,5.176,0,0,0-.535-3.688q-1.769-3.272-7.636-3.271a13.686,13.686,0,0,0-7.937,2.439" transform="translate(-204.26 -83.175)" fill="none"/></clipPath><linearGradient id="r" x1="-3.996" y1="2.592" x2="-3.976" y2="2.592" xlink:href="#d"/><clipPath id="s"><rect width="244.028" height="93.94" fill="none"/></clipPath></defs><g transform="translate(185.901 32.554)"><g clip-path="url(#a)"><rect width="42.985" height="42.144" transform="translate(-13.813 9.793) rotate(-35.789)" fill="url(#b)"/></g></g><g transform="translate(38.037 15.544)"><g clip-path="url(#c)"><path d="M77.131,49.085H93.624l.658-17.009H77.789Z" transform="translate(-77.789 -32.076)" fill="url(#d)"/></g></g><g transform="translate(50.486 15.544)"><g clip-path="url(#e)"><path d="M100.593,76.98h36.732l1.738-44.9H102.331Z" transform="translate(-102.331 -32.076)" fill="url(#f)"/></g></g><g transform="translate(29.99 40.67)"><g clip-path="url(#g)"><path d="M60.306,103.7H77.682l.765-19.778H61.071Z" transform="translate(-61.071 -83.922)" fill="url(#h)"/></g></g><g transform="translate(141.968 40.685)"><g clip-path="url(#i)"><path d="M291.374,103.716h23.519l.765-19.763H292.139Z" transform="translate(-292.139 -83.953)" fill="url(#j)"/></g></g><g transform="translate(161.546 40.685)"><g clip-path="url(#k)"><path d="M331.774,103.716H355.93l.765-19.763H332.538Z" transform="translate(-332.539 -83.953)" fill="url(#l)"/></g></g><g transform="translate(75.358 40.685)"><g clip-path="url(#m)"><path d="M153.923,103.716H176.71l.765-19.763H154.688Z" transform="translate(-154.688 -83.953)" fill="url(#n)"/></g></g><g transform="translate(119.863 40.685)"><g clip-path="url(#o)"><path d="M245.761,103.716h26.5l.765-19.763h-26.5Z" transform="translate(-246.526 -83.953)" fill="url(#p)"/></g></g><g transform="translate(98.987 40.308)"><g clip-path="url(#q)"><path d="M201.847,103.863h23.68l.8-20.688h-23.68Z" transform="translate(-203.016 -83.175)" fill="url(#r)"/></g></g><g clip-path="url(#s)"><path d="M153.858,147.784a3.935,3.935,0,0,1-1.916-1.08,1.659,1.659,0,0,1-.242-1.581,3.124,3.124,0,0,1,1.355-1.761,4.268,4.268,0,0,1,2.412-.7,3.07,3.07,0,0,1,1.552.36,1.792,1.792,0,0,1,.842.99,2.246,2.246,0,0,1,0,1.38h-1.194a1.351,1.351,0,0,0-.151-1.289,1.641,1.641,0,0,0-1.332-.469,2.688,2.688,0,0,0-1.482.388,1.842,1.842,0,0,0-.8,1.076.908.908,0,0,0,.2.933,3.283,3.283,0,0,0,1.389.7,5.418,5.418,0,0,1,1.558.7,1.761,1.761,0,0,1,.686.888,2.059,2.059,0,0,1-.035,1.195,3.028,3.028,0,0,1-1.358,1.754,4.531,4.531,0,0,1-2.473.659,3.574,3.574,0,0,1-1.631-.355,1.938,1.938,0,0,1-.961-.976,2.079,2.079,0,0,1-.033-1.4h1.195a1.231,1.231,0,0,0,.233,1.291,2,2,0,0,0,1.476.473,2.883,2.883,0,0,0,1.553-.384,1.787,1.787,0,0,0,.8-1.045.976.976,0,0,0-.171-1.024,3.843,3.843,0,0,0-1.478-.715" transform="translate(-77.383 -73.528)" fill="#616161"/><path d="M179.124,147.587a7.177,7.177,0,0,1-1.108,2.312,5.116,5.116,0,0,1-1.695,1.507,4.272,4.272,0,0,1-2.055.52,2.743,2.743,0,0,1-1.737-.523,2.338,2.338,0,0,1-.851-1.491,5.056,5.056,0,0,1,.176-2.244l.186-.65a7.1,7.1,0,0,1,1.111-2.3,5.228,5.228,0,0,1,1.715-1.526,4.239,4.239,0,0,1,2.042-.529,2.793,2.793,0,0,1,1.759.523,2.291,2.291,0,0,1,.837,1.516,5.347,5.347,0,0,1-.217,2.311ZM178.109,147a3.635,3.635,0,0,0,.062-2.46,1.546,1.546,0,0,0-1.555-.856,2.843,2.843,0,0,0-2.019.856,5.347,5.347,0,0,0-1.348,2.38l-.19.662a3.624,3.624,0,0,0-.047,2.441,1.525,1.525,0,0,0,1.543.889,2.826,2.826,0,0,0,2.023-.839,5.41,5.41,0,0,0,1.339-2.4Z" transform="translate(-88.451 -73.529)" fill="#616161"/><path d="M194.6,150.961h4.27l-.279.972h-5.464l2.584-9.011h1.194Z" transform="translate(-99.538 -73.66)" fill="#616161"/><path d="M220.814,142.922l-1.757,6.127a4.025,4.025,0,0,1-1.4,2.085,4.3,4.3,0,0,1-2.417.909l-.319.013a2.592,2.592,0,0,1-2.129-.8,2.336,2.336,0,0,1-.261-2.2l1.761-6.139h1.176l-1.75,6.1a1.737,1.737,0,0,0,.1,1.519,1.576,1.576,0,0,0,1.379.542,2.676,2.676,0,0,0,1.7-.539,2.851,2.851,0,0,0,.97-1.516l1.752-6.108Z" transform="translate(-109.461 -73.66)" fill="#616161"/><path d="M243.351,143.894h-2.9l-2.305,8.039h-1.182l2.305-8.039h-2.89l.279-.972h6.968Z" transform="translate(-121.829 -73.66)" fill="#616161"/><path d="M254.972,151.933h-1.188l2.584-9.011h1.188Z" transform="translate(-130.797 -73.66)" fill="#616161"/><path d="M274.374,147.587a7.178,7.178,0,0,1-1.108,2.312,5.116,5.116,0,0,1-1.695,1.507,4.275,4.275,0,0,1-2.055.52,2.745,2.745,0,0,1-1.737-.523,2.339,2.339,0,0,1-.85-1.491,5.056,5.056,0,0,1,.176-2.244l.186-.65a7.1,7.1,0,0,1,1.11-2.3,5.23,5.23,0,0,1,1.716-1.526,4.237,4.237,0,0,1,2.042-.529,2.793,2.793,0,0,1,1.759.523,2.291,2.291,0,0,1,.837,1.516,5.346,5.346,0,0,1-.217,2.311ZM273.359,147a3.631,3.631,0,0,0,.061-2.46,1.545,1.545,0,0,0-1.555-.856,2.843,2.843,0,0,0-2.019.856,5.347,5.347,0,0,0-1.348,2.38l-.19.662a3.627,3.627,0,0,0-.047,2.441,1.526,1.526,0,0,0,1.543.889,2.826,2.826,0,0,0,2.023-.839,5.405,5.405,0,0,0,1.339-2.4Z" transform="translate(-137.541 -73.529)" fill="#616161"/><path d="M295.308,151.933h-1.195l-2.545-6.944-1.991,6.944h-1.195l2.583-9.011h1.195l2.549,6.975,2-6.975h1.182Z" transform="translate(-148.629 -73.66)" fill="#616161"/><path d="M315.775,147.784a3.935,3.935,0,0,1-1.915-1.08,1.66,1.66,0,0,1-.243-1.581,3.125,3.125,0,0,1,1.355-1.761,4.266,4.266,0,0,1,2.412-.7,3.072,3.072,0,0,1,1.553.36,1.794,1.794,0,0,1,.842.99,2.249,2.249,0,0,1,0,1.38h-1.194a1.35,1.35,0,0,0-.151-1.289,1.639,1.639,0,0,0-1.332-.469,2.691,2.691,0,0,0-1.482.388,1.846,1.846,0,0,0-.8,1.076.909.909,0,0,0,.2.933,3.286,3.286,0,0,0,1.39.7,5.424,5.424,0,0,1,1.558.7,1.762,1.762,0,0,1,.686.888,2.056,2.056,0,0,1-.036,1.195,3.023,3.023,0,0,1-1.357,1.754,4.531,4.531,0,0,1-2.473.659,3.573,3.573,0,0,1-1.631-.355,1.936,1.936,0,0,1-.961-.976,2.076,2.076,0,0,1-.033-1.4h1.194a1.231,1.231,0,0,0,.233,1.291,2,2,0,0,0,1.476.473,2.878,2.878,0,0,0,1.552-.384,1.785,1.785,0,0,0,.8-1.045.976.976,0,0,0-.171-1.024,3.846,3.846,0,0,0-1.478-.715" transform="translate(-160.833 -73.528)" fill="#616161"/><path d="M98.766,143.987H55.134l.3-1.064H99.071Z" transform="translate(-28.415 -73.661)" fill="#616161"/><path d="M97.3,149.587H53.67l.3-1.064H97.607Z" transform="translate(-27.661 -76.547)" fill="#616161"/><path d="M379.852,143.987H336.22l.3-1.064h43.633Z" transform="translate(-173.284 -73.661)" fill="#616161"/><path d="M378.388,149.587H334.755l.305-1.064h43.632Z" transform="translate(-172.529 -76.547)" fill="#616161"/></g></svg>